<mxfile host="app.diagrams.net" modified="2023-02-26T09:51:16.826Z" agent="5.0 (Windows NT 10.0; Win64; x64) AppleWebKit/537.36 (KHTML, like Gecko) Chrome/110.0.0.0 Safari/537.36 Edg/110.0.1587.50" etag="WfS9n0KDtGBpoSsbNSQ5" version="20.8.16" type="github">
  <diagram name="Page-1" id="bLTI692i0d68UO6NP8W0">
    <mxGraphModel dx="1434" dy="788" grid="1" gridSize="10" guides="1" tooltips="1" connect="1" arrows="1" fold="1" page="1" pageScale="1" pageWidth="850" pageHeight="1100" math="0" shadow="0">
      <root>
        <mxCell id="0" />
        <mxCell id="1" parent="0" />
        <mxCell id="piT_WqBOq5aaLzGfNvpe-1" value="" style="rounded=0;whiteSpace=wrap;html=1;" vertex="1" parent="1">
          <mxGeometry x="180" y="135" width="420" height="520" as="geometry" />
        </mxCell>
        <mxCell id="piT_WqBOq5aaLzGfNvpe-5" style="edgeStyle=none;rounded=0;orthogonalLoop=1;jettySize=auto;html=1;exitX=1;exitY=0.3333333333333333;exitDx=0;exitDy=0;exitPerimeter=0;" edge="1" parent="1" source="eRFqwbBe9Qlbcm2T6zgd-1" target="piT_WqBOq5aaLzGfNvpe-4">
          <mxGeometry relative="1" as="geometry" />
        </mxCell>
        <mxCell id="piT_WqBOq5aaLzGfNvpe-10" style="edgeStyle=none;rounded=0;orthogonalLoop=1;jettySize=auto;html=1;exitX=1;exitY=0.3333333333333333;exitDx=0;exitDy=0;exitPerimeter=0;" edge="1" parent="1" source="eRFqwbBe9Qlbcm2T6zgd-1" target="piT_WqBOq5aaLzGfNvpe-9">
          <mxGeometry relative="1" as="geometry" />
        </mxCell>
        <mxCell id="eRFqwbBe9Qlbcm2T6zgd-1" value="Staf Sekretariat" style="shape=umlActor;verticalLabelPosition=bottom;verticalAlign=top;html=1;outlineConnect=0;" parent="1" vertex="1">
          <mxGeometry x="90" y="260" width="30" height="60" as="geometry" />
        </mxCell>
        <mxCell id="piT_WqBOq5aaLzGfNvpe-2" value="Login" style="ellipse;whiteSpace=wrap;html=1;" vertex="1" parent="1">
          <mxGeometry x="270" y="220" width="80" height="50" as="geometry" />
        </mxCell>
        <mxCell id="piT_WqBOq5aaLzGfNvpe-3" style="rounded=0;orthogonalLoop=1;jettySize=auto;html=1;exitX=1;exitY=0.3333333333333333;exitDx=0;exitDy=0;exitPerimeter=0;" edge="1" parent="1" source="eRFqwbBe9Qlbcm2T6zgd-1" target="piT_WqBOq5aaLzGfNvpe-2">
          <mxGeometry relative="1" as="geometry" />
        </mxCell>
        <mxCell id="piT_WqBOq5aaLzGfNvpe-4" value="Menambahkan Data Jemaat" style="ellipse;whiteSpace=wrap;html=1;" vertex="1" parent="1">
          <mxGeometry x="270" y="390" width="150" height="70" as="geometry" />
        </mxCell>
        <mxCell id="piT_WqBOq5aaLzGfNvpe-9" value="Melihat daftar jemaat dan keluarga jemaat" style="ellipse;whiteSpace=wrap;html=1;" vertex="1" parent="1">
          <mxGeometry x="255" y="290" width="180" height="70" as="geometry" />
        </mxCell>
        <mxCell id="piT_WqBOq5aaLzGfNvpe-13" style="edgeStyle=none;rounded=0;orthogonalLoop=1;jettySize=auto;html=1;exitX=0.5;exitY=0.5;exitDx=0;exitDy=0;exitPerimeter=0;" edge="1" parent="1" source="piT_WqBOq5aaLzGfNvpe-12" target="piT_WqBOq5aaLzGfNvpe-2">
          <mxGeometry relative="1" as="geometry" />
        </mxCell>
        <mxCell id="piT_WqBOq5aaLzGfNvpe-19" style="edgeStyle=none;rounded=0;orthogonalLoop=1;jettySize=auto;html=1;exitX=0.5;exitY=0.5;exitDx=0;exitDy=0;exitPerimeter=0;" edge="1" parent="1" source="piT_WqBOq5aaLzGfNvpe-12" target="piT_WqBOq5aaLzGfNvpe-18">
          <mxGeometry relative="1" as="geometry" />
        </mxCell>
        <mxCell id="piT_WqBOq5aaLzGfNvpe-12" value="Super Admin" style="shape=umlActor;verticalLabelPosition=bottom;verticalAlign=top;html=1;outlineConnect=0;" vertex="1" parent="1">
          <mxGeometry x="620" y="190" width="30" height="60" as="geometry" />
        </mxCell>
        <mxCell id="piT_WqBOq5aaLzGfNvpe-18" value="Membuat user aplikasi" style="ellipse;whiteSpace=wrap;html=1;" vertex="1" parent="1">
          <mxGeometry x="435" y="160" width="120" height="50" as="geometry" />
        </mxCell>
      </root>
    </mxGraphModel>
  </diagram>
</mxfile>
